<svg version="1.1" id="Layer_1" xmlns="http://www.w3.org/2000/svg" xmlns:xlink="http://www.w3.org/1999/xlink" x="0px" y="0px"
	 width="100%" viewBox="0 0 255 215" enable-background="new 0 0 255 215" xml:space="preserve">
<path fill="#F4F1EB" opacity="1.000000" stroke="none" 
	d="
M152.000000,216.000000 
	C101.333336,216.000000 51.166672,216.000000 1.000007,216.000000 
	C1.000005,144.333344 1.000005,72.666679 1.000002,1.000016 
	C85.999992,1.000011 170.999985,1.000011 255.999969,1.000005 
	C255.999985,72.666649 255.999985,144.333298 256.000000,215.999969 
	C221.500000,216.000000 187.000000,216.000000 152.000000,216.000000 
M201.638794,134.951187 
	C199.715118,134.951187 197.791458,134.951187 195.362839,134.951187 
	C195.362839,141.559738 195.362839,147.462433 195.362839,153.365112 
	C195.019058,153.779175 194.675262,154.193222 194.331482,154.607285 
	C192.056198,148.340775 186.971710,148.955826 182.085068,148.777786 
	C182.085068,146.470734 182.085220,144.657318 182.085052,142.843918 
	C182.082565,116.679642 182.079727,90.515373 182.077667,64.351097 
	C182.076965,55.636909 180.929749,54.444942 172.400986,54.474644 
	C135.739792,54.602318 99.078651,54.739716 62.417515,54.880909 
	C55.357464,54.908096 55.149170,55.100979 55.148632,62.220840 
	C55.146587,89.218285 55.167366,116.215721 55.179440,143.213165 
	C55.180233,144.990372 55.179539,146.767593 55.179539,149.260147 
	C48.588043,147.418564 45.106998,150.809174 41.847988,155.185059 
	C39.853760,157.862717 37.946880,160.337189 39.434734,163.723969 
	C41.014626,167.320282 44.365784,167.045547 47.591450,167.045319 
	C94.753769,167.041916 141.916092,167.074188 189.078415,167.092224 
	C196.412720,167.095032 197.192871,166.448441 198.677322,158.870789 
	C205.489105,158.870789 212.413513,158.870789 219.484543,158.870789 
	C219.484543,150.657928 219.484543,142.960815 219.484543,134.949524 
	C213.587250,134.949524 208.097137,134.949524 201.638794,134.951187 
M41.411255,15.677134 
	C40.734890,17.692146 39.480328,19.704105 39.469673,21.722635 
	C39.329941,48.186642 39.364994,74.651573 39.358395,101.116272 
	C39.356514,108.649811 39.519821,108.779579 47.917782,107.553612 
	C47.917782,106.024475 47.918095,104.399666 47.917732,102.774849 
	C47.914593,88.627045 48.256325,74.468102 47.800049,60.334919 
	C47.428230,48.817757 52.574821,47.096489 61.126915,47.113480 
	C83.929756,47.158779 106.732780,47.108177 129.535736,47.095921 
	C131.292892,47.094975 133.050064,47.095795 135.164154,47.095795 
	C135.164154,37.398453 135.031830,28.430279 135.230286,19.469431 
	C135.308014,15.959002 134.117233,14.877465 130.638550,14.911201 
	C101.181862,15.196877 71.723694,15.330869 41.411255,15.677134 
M189.673157,196.944458 
	C199.605789,196.944458 209.538437,196.944458 219.527802,196.944458 
	C219.527802,188.564453 219.527802,180.851440 219.527802,173.197266 
	C207.884033,173.197266 196.638168,173.197266 185.008148,173.197266 
	C185.008148,180.330765 185.130890,187.133545 184.952301,193.928436 
	C184.872391,196.968903 186.535248,197.104156 189.673157,196.944458 
M132.547134,172.849136 
	C129.630707,172.849136 126.714272,172.849136 123.845932,172.849136 
	C123.845932,181.329453 123.845932,189.012268 123.845932,196.673218 
	C131.903015,196.673218 139.486877,196.673218 147.287628,196.673218 
	C147.287628,188.673462 147.287628,180.957123 147.287628,172.849213 
	C142.470947,172.849213 137.999969,172.849213 132.547134,172.849136 
M177.779312,196.582596 
	C177.779312,188.864563 177.779312,181.146530 177.779312,173.181793 
	C170.261978,173.181793 162.572159,173.181793 154.708984,173.181793 
	C154.708984,181.207581 154.708984,188.904938 154.708984,196.877106 
	C162.359192,196.877106 169.642334,196.877106 177.779312,196.582596 
M195.800598,52.633499 
	C195.800598,58.859989 195.800598,65.086479 195.800598,71.396347 
	C204.217072,71.396347 211.783539,71.396347 219.566986,71.396347 
	C219.566986,63.542076 219.566986,56.005913 219.566986,48.000793 
	C212.311005,48.000793 205.362885,47.864262 198.433578,48.163399 
	C197.505844,48.203453 196.673172,50.445568 195.800598,52.633499 
M218.053131,100.809639 
	C218.648773,100.151749 219.750412,99.502808 219.762222,98.834595 
	C219.887726,91.739304 219.840073,84.640961 219.840073,77.268036 
	C211.661087,77.268036 203.972580,77.268036 196.079437,77.268036 
	C196.079437,85.145561 196.079437,92.699318 196.079437,100.849251 
	C203.273209,100.849251 210.202499,100.849251 218.053131,100.809639 
M217.109253,129.741150 
	C218.024811,129.060226 219.716141,128.401047 219.735916,127.695030 
	C219.933533,120.637428 219.855927,113.572128 219.855927,106.375580 
	C211.574860,106.375580 204.019287,106.375580 196.121399,106.375580 
	C196.121399,114.165527 196.121399,121.673805 196.121399,129.746216 
	C202.991974,129.746216 209.586014,129.746216 217.109253,129.741150 
M92.930099,183.514069 
	C92.930099,187.913925 92.930099,192.313766 92.930099,196.660248 
	C101.350571,196.660248 108.930099,196.660248 116.702209,196.660248 
	C116.702209,188.679230 116.702209,180.986435 116.702209,173.235718 
	C108.650093,173.235718 100.953522,173.235718 92.929787,173.235718 
	C92.929787,176.589264 92.929787,179.558838 92.930099,183.514069 
M190.999527,127.499672 
	C190.999527,103.545708 190.999527,79.591743 190.999527,55.637783 
	C190.662170,55.645588 190.324814,55.653393 189.987457,55.661201 
	C189.987457,86.068787 189.987457,116.476372 189.987457,146.883957 
	C190.324570,146.884888 190.661667,146.885803 190.998779,146.886734 
	C190.998779,140.757614 190.998779,134.628479 190.999527,127.499672 
M173.105255,47.027149 
	C170.177338,47.027149 167.249435,47.027149 164.321518,47.027149 
	C164.336411,47.252060 164.351318,47.476971 164.366211,47.701881 
	C168.509293,47.701881 172.652374,47.701881 176.795456,47.701881 
	C176.798553,47.523811 176.801636,47.345745 176.804733,47.167675 
	C175.850586,47.120708 174.896439,47.073742 173.105255,47.027149 
z"/>
<path fill="#28A5B6" opacity="1.000000" stroke="none" 
	d="
M202.122910,134.950348 
	C208.097137,134.949524 213.587250,134.949524 219.484543,134.949524 
	C219.484543,142.960815 219.484543,150.657928 219.484543,158.870789 
	C212.413513,158.870789 205.489105,158.870789 198.677322,158.870789 
	C197.192871,166.448441 196.412720,167.095032 189.078415,167.092224 
	C141.916092,167.074188 94.753769,167.041916 47.591450,167.045319 
	C44.365784,167.045547 41.014626,167.320282 39.434734,163.723969 
	C37.946880,160.337189 39.853760,157.862717 41.847988,155.185059 
	C45.106998,150.809174 48.588043,147.418564 55.179539,149.260147 
	C55.179539,146.767593 55.180233,144.990372 55.179440,143.213165 
	C55.167366,116.215721 55.146587,89.218285 55.148632,62.220840 
	C55.149170,55.100979 55.357464,54.908096 62.417515,54.880909 
	C99.078651,54.739716 135.739792,54.602318 172.400986,54.474644 
	C180.929749,54.444942 182.076965,55.636909 182.077667,64.351097 
	C182.079727,90.515373 182.082565,116.679642 182.085052,142.843918 
	C182.085220,144.657318 182.085068,146.470734 182.085068,148.777786 
	C186.971710,148.955826 192.056198,148.340775 194.331482,154.607285 
	C194.675262,154.193222 195.019058,153.779175 195.362839,153.365112 
	C195.362839,147.462433 195.362839,141.559738 195.362839,134.951187 
	C197.791458,134.951187 199.715118,134.951187 202.122910,134.950348 
M175.928284,134.381119 
	C175.928284,110.303970 175.928284,86.226814 175.928284,62.040798 
	C137.597458,62.040798 100.026665,62.040798 62.133324,62.040798 
	C62.133324,88.382782 62.133324,114.419846 62.133324,140.612732 
	C100.124290,140.612732 137.814346,140.612732 175.928345,140.612732 
	C175.928345,138.610535 175.928345,136.976578 175.928284,134.381119 
z"/>
<path fill="#28A5B6" opacity="1.000000" stroke="none" 
	d="
M41.838612,15.593762 
	C71.723694,15.330869 101.181862,15.196877 130.638550,14.911201 
	C134.117233,14.877465 135.308014,15.959002 135.230286,19.469431 
	C135.031830,28.430279 135.164154,37.398453 135.164154,47.095795 
	C133.050064,47.095795 131.292892,47.094975 129.535736,47.095921 
	C106.732780,47.108177 83.929756,47.158779 61.126915,47.113480 
	C52.574821,47.096489 47.428230,48.817757 47.800049,60.334919 
	C48.256325,74.468102 47.914593,88.627045 47.917732,102.774849 
	C47.918095,104.399666 47.917782,106.024475 47.917782,107.553612 
	C39.519821,108.779579 39.356514,108.649811 39.358395,101.116272 
	C39.364994,74.651573 39.329941,48.186642 39.469673,21.722635 
	C39.480328,19.704105 40.734890,17.692146 41.838612,15.593762 
M76.462082,26.986898 
	C73.726830,26.986898 70.991585,26.986898 68.300339,26.986898 
	C68.300339,29.996889 68.300339,32.238728 68.300339,34.556496 
	C73.591385,34.556496 78.587708,34.556496 83.569534,34.556496 
	C83.569534,31.917992 83.569534,29.687014 83.569534,26.985228 
	C81.307159,26.985228 79.363693,26.985228 76.462082,26.986898 
M60.927311,33.249252 
	C60.927311,31.331696 60.927311,29.414141 60.927311,27.386797 
	C57.493263,27.386797 54.628796,27.386797 51.695007,27.386797 
	C51.695007,30.049173 51.695007,32.381145 51.695007,35.373920 
	C55.048542,34.912453 57.888065,34.521713 60.927311,33.249252 
z"/>
<path fill="#26A4B6" opacity="1.000000" stroke="none" 
	d="
M189.195724,196.944229 
	C186.535248,197.104156 184.872391,196.968903 184.952301,193.928436 
	C185.130890,187.133545 185.008148,180.330765 185.008148,173.197266 
	C196.638168,173.197266 207.884033,173.197266 219.527802,173.197266 
	C219.527802,180.851440 219.527802,188.564453 219.527802,196.944458 
	C209.538437,196.944458 199.605789,196.944458 189.195724,196.944229 
z"/>
<path fill="#29A6B7" opacity="1.000000" stroke="none" 
	d="
M133.038055,172.849182 
	C137.999969,172.849213 142.470947,172.849213 147.287628,172.849213 
	C147.287628,180.957123 147.287628,188.673462 147.287628,196.673218 
	C139.486877,196.673218 131.903015,196.673218 123.845932,196.673218 
	C123.845932,189.012268 123.845932,181.329453 123.845932,172.849136 
	C126.714272,172.849136 129.630707,172.849136 133.038055,172.849182 
z"/>
<path fill="#28A5B6" opacity="1.000000" stroke="none" 
	d="
M177.352386,196.729858 
	C169.642334,196.877106 162.359192,196.877106 154.708984,196.877106 
	C154.708984,188.904938 154.708984,181.207581 154.708984,173.181793 
	C162.572159,173.181793 170.261978,173.181793 177.779312,173.181793 
	C177.779312,181.146530 177.779312,188.864563 177.352386,196.729858 
z"/>
<path fill="#2BA6B7" opacity="1.000000" stroke="none" 
	d="
M195.798538,52.150726 
	C196.673172,50.445568 197.505844,48.203453 198.433578,48.163399 
	C205.362885,47.864262 212.311005,48.000793 219.566986,48.000793 
	C219.566986,56.005913 219.566986,63.542076 219.566986,71.396347 
	C211.783539,71.396347 204.217072,71.396347 195.800598,71.396347 
	C195.800598,65.086479 195.800598,58.859989 195.798538,52.150726 
z"/>
<path fill="#29A6B7" opacity="1.000000" stroke="none" 
	d="
M217.592468,100.829445 
	C210.202499,100.849251 203.273209,100.849251 196.079437,100.849251 
	C196.079437,92.699318 196.079437,85.145561 196.079437,77.268036 
	C203.972580,77.268036 211.661087,77.268036 219.840073,77.268036 
	C219.840073,84.640961 219.887726,91.739304 219.762222,98.834595 
	C219.750412,99.502808 218.648773,100.151749 217.592468,100.829445 
z"/>
<path fill="#2BA6B7" opacity="1.000000" stroke="none" 
	d="
M216.644653,129.743683 
	C209.586014,129.746216 202.991974,129.746216 196.121399,129.746216 
	C196.121399,121.673805 196.121399,114.165527 196.121399,106.375580 
	C204.019287,106.375580 211.574860,106.375580 219.855927,106.375580 
	C219.855927,113.572128 219.933533,120.637428 219.735916,127.695030 
	C219.716141,128.401047 218.024811,129.060226 216.644653,129.743683 
z"/>
<path fill="#26A4B6" opacity="1.000000" stroke="none" 
	d="
M92.929947,183.021240 
	C92.929787,179.558838 92.929787,176.589264 92.929787,173.235718 
	C100.953522,173.235718 108.650093,173.235718 116.702209,173.235718 
	C116.702209,180.986435 116.702209,188.679230 116.702209,196.660248 
	C108.930099,196.660248 101.350571,196.660248 92.930099,196.660248 
	C92.930099,192.313766 92.930099,187.913925 92.929947,183.021240 
z"/>
<path fill="#A0CFD2" opacity="1.000000" stroke="none" 
	d="
M190.999146,127.999512 
	C190.998779,134.628479 190.998779,140.757614 190.998779,146.886734 
	C190.661667,146.885803 190.324570,146.884888 189.987457,146.883957 
	C189.987457,116.476372 189.987457,86.068787 189.987457,55.661201 
	C190.324814,55.653393 190.662170,55.645588 190.999527,55.637783 
	C190.999527,79.591743 190.999527,103.545708 190.999146,127.999512 
z"/>
<path fill="#CFE3E0" opacity="1.000000" stroke="none" 
	d="
M173.523773,47.026962 
	C174.896439,47.073742 175.850586,47.120708 176.804733,47.167675 
	C176.801636,47.345745 176.798553,47.523811 176.795456,47.701881 
	C172.652374,47.701881 168.509293,47.701881 164.366211,47.701881 
	C164.351318,47.476971 164.336411,47.252060 164.321518,47.027149 
	C167.249435,47.027149 170.177338,47.027149 173.523773,47.026962 
z"/>
<path fill="#F3F1EB" opacity="1.000000" stroke="none" 
	d="
M175.928314,134.861877 
	C175.928345,136.976578 175.928345,138.610535 175.928345,140.612732 
	C137.814346,140.612732 100.124290,140.612732 62.133324,140.612732 
	C62.133324,114.419846 62.133324,88.382782 62.133324,62.040798 
	C100.026665,62.040798 137.597458,62.040798 175.928284,62.040798 
	C175.928284,86.226814 175.928284,110.303970 175.928314,134.861877 
M90.062828,101.609772 
	C93.397942,98.153053 96.634193,94.592880 100.104027,91.277145 
	C102.300133,89.178581 102.269226,87.567429 100.111786,85.499481 
	C98.026558,83.500755 96.244926,83.282410 94.164131,85.406830 
	C89.520798,90.147514 84.683533,94.708565 80.248825,99.634109 
	C79.411469,100.564163 79.350098,103.516907 80.162338,104.388481 
	C84.680832,109.237068 89.662666,113.649529 94.314804,118.379555 
	C96.957108,121.066086 98.536919,119.314484 100.477158,117.544540 
	C102.847389,115.382324 101.615303,113.908333 99.904396,112.228279 
	C96.593964,108.977554 93.380379,105.628204 90.062828,101.609772 
M146.825012,89.654495 
	C145.383469,88.269547 143.883438,86.939705 142.514053,85.486748 
	C140.453049,83.300003 138.663239,83.514420 136.584076,85.588470 
	C134.421310,87.745926 134.545929,89.481705 136.760742,91.439392 
	C140.454590,94.704361 144.061981,98.067123 148.810715,102.395943 
	C143.401855,106.976181 138.985199,110.716225 134.711288,114.335388 
	C139.317245,121.212067 139.679886,121.276451 144.651215,116.492035 
	C148.132263,113.141884 151.414139,109.562469 155.085815,106.439117 
	C158.646729,103.410004 159.286270,100.913025 155.289093,97.734634 
	C152.433472,95.463966 149.970596,92.699356 146.825012,89.654495 
M110.408768,119.902260 
	C109.997246,121.338348 109.207703,122.795975 109.287941,124.204041 
	C109.358330,125.439507 110.192490,127.401894 111.069092,127.638977 
	C112.358467,127.987701 114.179428,127.390823 115.399467,126.610924 
	C116.188927,126.106270 116.379471,124.577255 116.719810,123.470779 
	C120.963951,109.672432 125.164963,95.860779 129.434738,82.070404 
	C130.172882,79.686386 130.834686,77.387192 127.745636,76.309387 
	C124.308395,75.110100 123.478546,77.572731 122.699890,80.127296 
	C118.732147,93.144501 114.721764,106.148712 110.408768,119.902260 
z"/>
<path fill="#EDEFE9" opacity="1.000000" stroke="none" 
	d="
M76.941147,26.986063 
	C79.363693,26.985228 81.307159,26.985228 83.569534,26.985228 
	C83.569534,29.687014 83.569534,31.917992 83.569534,34.556496 
	C78.587708,34.556496 73.591385,34.556496 68.300339,34.556496 
	C68.300339,32.238728 68.300339,29.996889 68.300339,26.986898 
	C70.991585,26.986898 73.726830,26.986898 76.941147,26.986063 
z"/>
<path fill="#E4EBE7" opacity="1.000000" stroke="none" 
	d="
M60.827454,33.690117 
	C57.888065,34.521713 55.048542,34.912453 51.695007,35.373920 
	C51.695007,32.381145 51.695007,30.049173 51.695007,27.386797 
	C54.628796,27.386797 57.493263,27.386797 60.927311,27.386797 
	C60.927311,29.414141 60.927311,31.331696 60.827454,33.690117 
z"/>
<path fill="#2BA6B7" opacity="1.000000" stroke="none" 
	d="
M90.094742,101.964752 
	C93.380379,105.628204 96.593964,108.977554 99.904396,112.228279 
	C101.615303,113.908333 102.847389,115.382324 100.477158,117.544540 
	C98.536919,119.314484 96.957108,121.066086 94.314804,118.379555 
	C89.662666,113.649529 84.680832,109.237068 80.162338,104.388481 
	C79.350098,103.516907 79.411469,100.564163 80.248825,99.634109 
	C84.683533,94.708565 89.520798,90.147514 94.164131,85.406830 
	C96.244926,83.282410 98.026558,83.500755 100.111786,85.499481 
	C102.269226,87.567429 102.300133,89.178581 100.104027,91.277145 
	C96.634193,94.592880 93.397942,98.153053 90.094742,101.964752 
z"/>
<path fill="#2AA6B7" opacity="1.000000" stroke="none" 
	d="
M147.078735,89.904823 
	C149.970596,92.699356 152.433472,95.463966 155.289093,97.734634 
	C159.286270,100.913025 158.646729,103.410004 155.085815,106.439117 
	C151.414139,109.562469 148.132263,113.141884 144.651215,116.492035 
	C139.679886,121.276451 139.317245,121.212067 134.711288,114.335388 
	C138.985199,110.716225 143.401855,106.976181 148.810715,102.395943 
	C144.061981,98.067123 140.454590,94.704361 136.760742,91.439392 
	C134.545929,89.481705 134.421310,87.745926 136.584076,85.588470 
	C138.663239,83.514420 140.453049,83.300003 142.514053,85.486748 
	C143.883438,86.939705 145.383469,88.269547 147.078735,89.904823 
z"/>
<path fill="#2AA6B7" opacity="1.000000" stroke="none" 
	d="
M110.567535,119.529861 
	C114.721764,106.148712 118.732147,93.144501 122.699890,80.127296 
	C123.478546,77.572731 124.308395,75.110100 127.745636,76.309387 
	C130.834686,77.387192 130.172882,79.686386 129.434738,82.070404 
	C125.164963,95.860779 120.963951,109.672432 116.719810,123.470779 
	C116.379471,124.577255 116.188927,126.106270 115.399467,126.610924 
	C114.179428,127.390823 112.358467,127.987701 111.069092,127.638977 
	C110.192490,127.401894 109.358330,125.439507 109.287941,124.204041 
	C109.207703,122.795975 109.997246,121.338348 110.567535,119.529861 
z"/>
</svg>