<svg version="1.1" id="Layer_1" xmlns="http://www.w3.org/2000/svg" xmlns:xlink="http://www.w3.org/1999/xlink" x="0px" y="0px"
	 width="100%" viewBox="0 0 981 1000" enable-background="new 0 0 981 1000" xml:space="preserve">
<path fill="#FFFFFF" opacity="1.000000" stroke="none" 
	d="
M1.000001,415.000000 
	C1.000000,277.051605 1.000000,139.103210 1.000000,1.000000 
	C239.359146,1.000000 477.718323,1.000000 716.370117,1.336396 
	C705.367920,3.844030 697.750610,11.680283 696.113403,23.159220 
	C693.515747,41.372040 688.307922,58.827637 681.224854,75.759735 
	C661.356445,123.255135 631.317871,163.937988 596.183472,200.977829 
	C524.530334,276.516754 439.786896,333.261444 344.393524,374.379395 
	C327.826447,381.520386 310.848267,387.707642 294.133057,394.306580 
	C293.246246,392.903717 292.773804,392.227509 292.372589,391.511383 
	C277.498596,364.960358 254.858521,351.188019 224.420074,351.056213 
	C174.942993,350.841888 125.464104,350.912079 75.986374,351.028870 
	C41.769245,351.109619 12.539463,373.711700 3.512973,406.702148 
	C2.750549,409.488678 1.841130,412.234985 1.000001,415.000000 
z"/>
<path fill="#010101" opacity="1.000000" stroke="none" 
	d="
M1.000001,415.468658 
	C1.841130,412.234985 2.750549,409.488678 3.512973,406.702148 
	C12.539463,373.711700 41.769245,351.109619 75.986374,351.028870 
	C125.464104,350.912079 174.942993,350.841888 224.420074,351.056213 
	C254.858521,351.188019 277.498596,364.960358 292.372589,391.511383 
	C292.773804,392.227509 293.246246,392.903717 294.133057,394.306580 
	C310.848267,387.707642 327.826447,381.520386 344.393524,374.379395 
	C439.786896,333.261444 524.530334,276.516754 596.183472,200.977829 
	C631.317871,163.937988 661.356445,123.255135 681.224854,75.759735 
	C688.307922,58.827637 693.515747,41.372040 696.113403,23.159220 
	C697.750610,11.680283 705.367920,3.844030 716.831421,1.336396 
	C721.024536,1.000000 725.049072,1.000000 729.712524,1.375025 
	C761.787292,5.012250 788.512085,17.857971 809.444885,41.673717 
	C831.981689,67.314438 840.198120,98.256607 840.857300,131.586761 
	C841.445496,161.325378 835.713806,190.161621 827.285461,218.534821 
	C814.069885,263.023834 794.508484,304.780121 772.582581,345.517456 
	C771.676453,347.201050 770.782532,348.891174 769.658691,350.998688 
	C772.226074,350.998688 774.047058,350.998657 775.868042,350.998688 
	C816.861755,350.998749 857.856079,350.878601 898.848511,351.111176 
	C906.105957,351.152344 913.577332,351.814575 920.569031,353.645020 
	C948.537415,360.967285 965.554016,380.212189 973.840088,406.866821 
	C987.459595,450.677887 981.900513,493.404846 963.196838,534.637695 
	C958.855103,544.209106 952.535706,552.883484 946.962341,562.246094 
	C953.995422,573.769287 957.662476,586.958984 959.082275,600.861145 
	C962.118591,630.590942 957.086548,659.241150 947.223572,687.169678 
	C939.675659,708.542725 929.682617,728.658752 912.688232,744.192078 
	C907.343201,749.077637 905.470215,753.455078 905.566895,760.885742 
	C906.047058,797.792603 895.975647,832.199585 877.895874,864.199585 
	C867.738403,882.177734 854.444641,897.298401 835.232605,906.337219 
	C833.802185,907.010132 832.607788,909.192078 832.205627,910.886597 
	C828.404175,926.902893 821.164734,941.160095 810.362915,953.518738 
	C787.570129,979.596802 757.644165,992.065063 724.405090,997.998596 
	C717.640381,999.206238 710.803589,1000.010071 704.000000,1001.000000 
	C687.312439,1001.000000 670.624878,1001.000000 653.287659,1000.602051 
	C634.220215,998.819641 615.765808,997.804199 597.392090,995.976501 
	C554.786316,991.738342 514.209351,980.517700 476.520386,959.729675 
	C445.335815,942.529175 413.387634,927.195435 378.589142,918.467834 
	C351.310791,911.626282 323.719055,906.739441 295.762726,903.283997 
	C295.201569,904.359192 294.725220,905.209900 294.304352,906.087280 
	C280.756195,934.329285 258.251984,950.094360 227.056763,950.611023 
	C176.105270,951.454895 125.126358,951.179077 74.165131,950.710510 
	C39.637302,950.393188 10.407660,925.707031 2.791738,891.863403 
	C2.415735,890.192444 1.607146,888.618896 0.999993,887.000000 
	C1.000000,729.979126 1.000000,572.958191 1.000001,415.468658 
M747.322632,57.036789 
	C745.224243,56.270321 743.125854,55.503849 742.235474,55.178627 
	C734.781189,74.173897 728.504333,92.968460 720.195496,110.817024 
	C695.208435,164.492340 658.763489,210.032578 616.865112,251.275986 
	C527.779968,338.968536 423.527832,402.223785 305.389984,442.729004 
	C301.700836,443.993896 300.695770,445.509338 300.698730,449.272125 
	C300.803192,582.437866 300.785370,715.603638 300.795135,848.769409 
	C300.795227,850.385559 300.930420,852.001648 301.004547,853.661621 
	C309.089233,854.804993 316.821899,855.838745 324.535400,856.999756 
	C357.962860,862.031189 390.935577,868.967957 422.996735,879.933838 
	C450.485840,889.335876 475.980774,902.937683 501.506439,916.512817 
	C520.067566,926.384094 539.400574,934.339294 559.935242,939.002319 
	C608.539795,950.039734 657.865601,952.408264 707.430298,949.807983 
	C725.688843,948.850159 743.062134,943.315430 758.558044,933.070312 
	C775.397827,921.936707 784.742737,906.605408 785.021118,886.032471 
	C785.181152,874.210266 793.733765,863.447876 805.491028,862.540527 
	C817.384949,861.622681 824.397705,854.814514 830.193909,846.129089 
	C846.869263,821.141235 854.774963,793.263184 855.840454,763.396851 
	C855.911987,761.391052 854.287964,758.887878 852.734070,757.335083 
	C845.227966,749.833862 842.295410,741.055542 845.580933,730.917114 
	C848.848572,720.833923 856.150330,715.341919 866.723450,713.569580 
	C870.591431,712.921143 874.709717,711.088684 877.704773,708.587830 
	C881.461670,705.450867 884.641602,701.361084 887.271912,697.180054 
	C901.694458,674.255188 908.685608,648.907776 909.669189,622.070007 
	C910.016907,612.581787 908.102539,602.932983 906.493530,593.481323 
	C905.596191,588.209961 902.184937,585.251831 895.979065,584.951721 
	C884.266968,584.385498 874.628662,573.905457 873.994141,562.247986 
	C873.310913,549.695496 881.440247,537.647339 893.316162,536.308167 
	C903.122131,535.202393 908.487061,529.640015 913.070618,522.233521 
	C923.074036,506.069061 927.821960,488.167419 930.036255,469.500183 
	C931.977173,453.138000 931.725220,436.891205 926.006653,421.176727 
	C920.540710,406.156586 913.087402,401.079437 897.105591,401.079132 
	C840.772644,401.078003 784.439514,401.137512 728.106750,401.048065 
	C706.348816,401.013519 694.904968,380.754181 705.803162,361.871490 
	C708.047241,357.983276 710.393372,354.153961 712.639771,350.266998 
	C737.874451,306.601440 760.982971,261.922913 776.464722,213.718460 
	C786.134644,183.609848 793.141724,153.010651 789.984070,121.028389 
	C787.169067,92.516495 775.417480,69.728477 747.322632,57.036789 
M50.944733,798.500000 
	C50.944733,823.326782 50.935398,848.153503 50.947880,872.980286 
	C50.956818,890.761047 61.023651,900.864197 78.761490,900.868835 
	C126.748650,900.881226 174.735809,900.879883 222.722977,900.870056 
	C240.681259,900.866455 250.868896,890.671509 250.869675,872.687195 
	C250.876099,724.726746 250.876877,576.766357 250.868469,428.805908 
	C250.867462,411.137054 240.672440,401.006989 222.934235,401.004028 
	C175.113693,400.996033 127.288681,401.372894 79.475052,400.798096 
	C62.920460,400.599091 50.686714,411.894836 50.742191,429.599030 
	C51.126461,552.231689 50.944740,674.866150 50.944733,798.500000 
z"/>
<path fill="#FFFFFF" opacity="1.000000" stroke="none" 
	d="
M704.468628,1001.000000 
	C710.803589,1000.010071 717.640381,999.206238 724.405090,997.998596 
	C757.644165,992.065063 787.570129,979.596802 810.362915,953.518738 
	C821.164734,941.160095 828.404175,926.902893 832.205627,910.886597 
	C832.607788,909.192078 833.802185,907.010132 835.232605,906.337219 
	C854.444641,897.298401 867.738403,882.177734 877.895874,864.199585 
	C895.975647,832.199585 906.047058,797.792603 905.566895,760.885742 
	C905.470215,753.455078 907.343201,749.077637 912.688232,744.192078 
	C929.682617,728.658752 939.675659,708.542725 947.223572,687.169678 
	C957.086548,659.241150 962.118591,630.590942 959.082275,600.861145 
	C957.662476,586.958984 953.995422,573.769287 946.962341,562.246094 
	C952.535706,552.883484 958.855103,544.209106 963.196838,534.637695 
	C981.900513,493.404846 987.459595,450.677887 973.840088,406.866821 
	C965.554016,380.212189 948.537415,360.967285 920.569031,353.645020 
	C913.577332,351.814575 906.105957,351.152344 898.848511,351.111176 
	C857.856079,350.878601 816.861755,350.998749 775.868042,350.998688 
	C774.047058,350.998657 772.226074,350.998688 769.658691,350.998688 
	C770.782532,348.891174 771.676453,347.201050 772.582581,345.517456 
	C794.508484,304.780121 814.069885,263.023834 827.285461,218.534821 
	C835.713806,190.161621 841.445496,161.325378 840.857300,131.586761 
	C840.198120,98.256607 831.981689,67.314438 809.444885,41.673717 
	C788.512085,17.857971 761.787292,5.012250 730.175781,1.375025 
	C813.975952,1.000000 897.951965,1.000000 981.963989,1.000000 
	C981.963989,334.213959 981.963989,667.427917 981.963989,1001.000000 
	C889.646057,1001.000000 797.291687,1001.000000 704.468628,1001.000000 
z"/>
<path fill="#FEFEFE" opacity="1.000000" stroke="none" 
	d="
M0.999993,887.468628 
	C1.607146,888.618896 2.415735,890.192444 2.791738,891.863403 
	C10.407660,925.707031 39.637302,950.393188 74.165131,950.710510 
	C125.126358,951.179077 176.105270,951.454895 227.056763,950.611023 
	C258.251984,950.094360 280.756195,934.329285 294.304352,906.087280 
	C294.725220,905.209900 295.201569,904.359192 295.762726,903.283997 
	C323.719055,906.739441 351.310791,911.626282 378.589142,918.467834 
	C413.387634,927.195435 445.335815,942.529175 476.520386,959.729675 
	C514.209351,980.517700 554.786316,991.738342 597.392090,995.976501 
	C615.765808,997.804199 634.220215,998.819641 652.818970,1000.602051 
	C435.790833,1001.000000 218.581696,1001.000000 1.000000,1001.000000 
	C1.000000,963.313232 1.000000,925.625305 0.999993,887.468628 
z"/>
<path fill="#FFFFFF" opacity="1.000000" stroke="none" 
	d="
M747.679810,57.173954 
	C775.417480,69.728477 787.169067,92.516495 789.984070,121.028389 
	C793.141724,153.010651 786.134644,183.609848 776.464722,213.718460 
	C760.982971,261.922913 737.874451,306.601440 712.639771,350.266998 
	C710.393372,354.153961 708.047241,357.983276 705.803162,361.871490 
	C694.904968,380.754181 706.348816,401.013519 728.106750,401.048065 
	C784.439514,401.137512 840.772644,401.078003 897.105591,401.079132 
	C913.087402,401.079437 920.540710,406.156586 926.006653,421.176727 
	C931.725220,436.891205 931.977173,453.138000 930.036255,469.500183 
	C927.821960,488.167419 923.074036,506.069061 913.070618,522.233521 
	C908.487061,529.640015 903.122131,535.202393 893.316162,536.308167 
	C881.440247,537.647339 873.310913,549.695496 873.994141,562.247986 
	C874.628662,573.905457 884.266968,584.385498 895.979065,584.951721 
	C902.184937,585.251831 905.596191,588.209961 906.493530,593.481323 
	C908.102539,602.932983 910.016907,612.581787 909.669189,622.070007 
	C908.685608,648.907776 901.694458,674.255188 887.271912,697.180054 
	C884.641602,701.361084 881.461670,705.450867 877.704773,708.587830 
	C874.709717,711.088684 870.591431,712.921143 866.723450,713.569580 
	C856.150330,715.341919 848.848572,720.833923 845.580933,730.917114 
	C842.295410,741.055542 845.227966,749.833862 852.734070,757.335083 
	C854.287964,758.887878 855.911987,761.391052 855.840454,763.396851 
	C854.774963,793.263184 846.869263,821.141235 830.193909,846.129089 
	C824.397705,854.814514 817.384949,861.622681 805.491028,862.540527 
	C793.733765,863.447876 785.181152,874.210266 785.021118,886.032471 
	C784.742737,906.605408 775.397827,921.936707 758.558044,933.070312 
	C743.062134,943.315430 725.688843,948.850159 707.430298,949.807983 
	C657.865601,952.408264 608.539795,950.039734 559.935242,939.002319 
	C539.400574,934.339294 520.067566,926.384094 501.506439,916.512817 
	C475.980774,902.937683 450.485840,889.335876 422.996735,879.933838 
	C390.935577,868.967957 357.962860,862.031189 324.535400,856.999756 
	C316.821899,855.838745 309.089233,854.804993 301.004547,853.661621 
	C300.930420,852.001648 300.795227,850.385559 300.795135,848.769409 
	C300.785370,715.603638 300.803192,582.437866 300.698730,449.272125 
	C300.695770,445.509338 301.700836,443.993896 305.389984,442.729004 
	C423.527832,402.223785 527.779968,338.968536 616.865112,251.275986 
	C658.763489,210.032578 695.208435,164.492340 720.195496,110.817024 
	C728.504333,92.968460 734.781189,74.173897 742.235474,55.178627 
	C743.125854,55.503849 745.224243,56.270321 747.679810,57.173954 
z"/>
<path fill="#FFFFFF" opacity="1.000000" stroke="none" 
	d="
M50.944733,798.000000 
	C50.944740,674.866150 51.126461,552.231689 50.742191,429.599030 
	C50.686714,411.894836 62.920460,400.599091 79.475052,400.798096 
	C127.288681,401.372894 175.113693,400.996033 222.934235,401.004028 
	C240.672440,401.006989 250.867462,411.137054 250.868469,428.805908 
	C250.876877,576.766357 250.876099,724.726746 250.869675,872.687195 
	C250.868896,890.671509 240.681259,900.866455 222.722977,900.870056 
	C174.735809,900.879883 126.748650,900.881226 78.761490,900.868835 
	C61.023651,900.864197 50.956818,890.761047 50.947880,872.980286 
	C50.935398,848.153503 50.944733,823.326782 50.944733,798.000000 
z"/>
</svg>